<?xml version="1.0" encoding="utf-8"?>
<!-- Generator: Adobe Illustrator 26.3.1, SVG Export Plug-In . SVG Version: 6.00 Build 0)  -->
<svg version="1.1" id="Capa_1" xmlns="http://www.w3.org/2000/svg" xmlns:xlink="http://www.w3.org/1999/xlink" x="0px" y="0px"
	 viewBox="0 0 100 21.8" style="enable-background:new 0 0 100 21.8;" xml:space="preserve">
<style type="text/css">
	.st0{fill:#FFFFFF;}
</style>
<g>
	<path class="st0" d="M10.9,0C4.9,0,0,4.9,0,10.9c0,6,4.9,10.9,10.9,10.9c6,0,10.9-4.9,10.9-10.9C21.8,4.9,16.9,0,10.9,0z
		 M17.4,14.8c-0.4,0.5-1.2,0.5-1.8,0.1c-1.3-0.9-2.8-1.3-4.6-1.4h0c0,0-0.1,0-0.1,0c0,0,0,0,0,0c0,0,0,0,0,0c0,0-0.1,0-0.1,0h0
		c-1.9,0-3.3,0.5-4.6,1.4c-0.6,0.4-1.3,0.4-1.8-0.1c-0.4-0.4-0.6-1-0.6-1.6c0,0,0,0,0,0c0-0.6,0.4-1.2,1-1.4
		c0.9-0.3,1.8-0.8,2.6-1.6C8.7,9,9.3,7.4,9.3,6c0-0.4,0.2-0.8,0.6-0.9c0.3-0.1,0.7-0.2,1.1-0.2c0,0,0,0,0,0c0,0,0,0,0,0
		c0.4,0,0.7,0.1,1.1,0.2c0.4,0.2,0.6,0.5,0.6,0.9c0,1.4,0.6,3,1.8,4.2c0.8,0.8,1.7,1.3,2.6,1.6c0.6,0.2,1,0.8,1,1.4c0,0,0,0,0,0
		C18,13.8,17.8,14.4,17.4,14.8z"/>
	<g>
		<path class="st0" d="M44.3,7h1.4l3.2,5.7V7h1.1v7.2h-1.4l-3.2-5.6v5.6h-1.1V7z"/>
		<path class="st0" d="M53.5,7h1.1v7.2h-1.1V7z"/>
		<path class="st0" d="M58.7,7l2.1,5.9L62.9,7h1.1l-2.6,7.2h-1.3L57.5,7H58.7z"/>
		<path class="st0" d="M76.1,7h3.8c0.3,0,0.6,0.1,0.9,0.2c0.3,0.2,0.5,0.4,0.6,0.6s0.2,0.6,0.2,0.9v0.7c0,0.3-0.1,0.6-0.2,0.9
			s-0.4,0.5-0.6,0.6c-0.3,0.2-0.6,0.2-0.9,0.2l2.2,3h-1.3l-2.2-3l0,0l-0.4-0.5c-0.2-0.2,0-0.5,0.3-0.5h1.5c0.2,0,0.4-0.1,0.5-0.2
			c0.1-0.1,0.2-0.3,0.2-0.5V8.8c0-0.2-0.1-0.4-0.2-0.5c-0.1-0.2-0.3-0.2-0.5-0.2h-2.8v6.2h-1.1V7z"/>
		<path class="st0" d="M85.1,8.8c0-0.3,0.1-0.6,0.2-0.9c0.2-0.3,0.4-0.5,0.7-0.6S86.5,7,86.9,7h3.7v1.1h-3.7c-0.2,0-0.4,0.1-0.5,0.2
			c-0.1,0.1-0.2,0.3-0.2,0.5v0.5c0,0.2,0.1,0.3,0.2,0.5c0.1,0.1,0.3,0.2,0.5,0.2h2.3c0.3,0,0.6,0.1,0.9,0.2s0.5,0.4,0.6,0.6
			c0.2,0.3,0.2,0.6,0.2,0.9v0.8c0,0.3-0.1,0.6-0.2,0.9c-0.2,0.3-0.4,0.5-0.6,0.6s-0.6,0.2-0.9,0.2h-4.1v-1.1h4.1
			c0.2,0,0.4-0.1,0.5-0.2c0.1-0.1,0.2-0.3,0.2-0.5v-0.8c0-0.2-0.1-0.4-0.2-0.5c-0.1-0.1-0.3-0.2-0.5-0.2h-2.3
			c-0.3,0-0.6-0.1-0.9-0.2c-0.3-0.2-0.5-0.4-0.7-0.6c-0.2-0.3-0.2-0.6-0.2-0.9V8.8z"/>
		<polygon class="st0" points="29.4,7 28.1,7 25.5,14.3 26.6,14.3 28.7,8.4 29.7,11 29.7,11 30.2,12.5 30.2,12.5 30.9,14.3 32,14.3 
					"/>
		<g>
			<rect x="67.1" y="10" class="st0" width="3.9" height="1.1"/>
			<polygon class="st0" points="68.1,13.2 67.1,13.2 67.1,14.3 72.7,14.3 72.7,13.2 68.1,13.2 			"/>
			<polygon class="st0" points="67.1,7 67.1,8.1 68.1,8.1 68.2,8.1 72.7,8.1 72.7,7 			"/>
		</g>
		<g>
			<rect x="94.4" y="10" class="st0" width="3.9" height="1.1"/>
			<polygon class="st0" points="95.5,13.2 94.4,13.2 94.4,14.3 100,14.3 100,13.2 95.5,13.2 			"/>
			<polygon class="st0" points="94.4,7 94.4,8.1 95.5,8.1 95.5,8.1 100,8.1 100,7 			"/>
		</g>
		<path class="st0" d="M40.6,8c-0.2-0.3-0.4-0.6-0.7-0.7c-0.3-0.2-0.7-0.3-1-0.3H35v1.1h1.1h0.4h2.4c0.3,0,0.5,0.1,0.7,0.3
			c0.2,0.2,0.3,0.4,0.3,0.7v3.2c0,0.3-0.1,0.5-0.3,0.7c-0.2,0.2-0.4,0.3-0.7,0.3h-2.4h-0.4H35v1.1h3.9c0.4,0,0.7-0.1,1-0.3
			c0.3-0.2,0.6-0.4,0.7-0.7c0.2-0.3,0.3-0.6,0.3-1V9.1C40.9,8.7,40.8,8.4,40.6,8z"/>
	</g>
</g>
</svg>
